<svg xmlns="http://www.w3.org/2000/svg" viewBox="19 14 63 72" width="1em">
<path fill="currentColor" d="M81.3,22.9c0.3-0.4,0.2-1.1-0.2-1.4c-0.4-0.3-1.1-0.2-1.4,0.2l-3.6,5l1.3-11.1c0.1-0.5-0.3-1-0.9-1.1c-0.6-0.1-1,0.3-1.1,0.9l-1.4,12.1c-0.4-0.2-0.8-0.4-1.3-0.6c-2.6-1-5.3-0.6-7.1,1c-2.5,2.2-5.2,6.4-6.9,9.1c-0.2-1.2-0.6-2.3-1.1-3.3c-1.2-1.9-3-2.9-5.5-3.1c-2.6-0.2-4.5,0.5-5.8,2c-0.8,0.9-1.2,2.1-1.4,3.2c-1-0.9-2.5-1.6-4.6-1.9c-1.9-0.3-3.5,0.1-4.7,1.3c-1.4,1.3-2,3.4-2.2,5c-0.5-0.4-1.2-0.7-2-0.8c-1.6-0.2-3.3,0.8-4.8,2.8c-1.7,2.2-2.3,4.3-1.7,6.3c0.4,1.3,1.3,2.4,2.2,3.2h-6.6c-0.3,0-0.5,0.1-0.7,0.3c-0.2,0.2-0.3,0.5-0.3,0.7c0.4,12.6,6.2,21,17.2,24.9c0,0,0,0.1-0.1,0.1l-1.3,6.6c-0.1,0.3,0,0.6,0.2,0.8c0.2,0.2,0.5,0.4,0.8,0.4h28c0.3,0,0.6-0.1,0.8-0.4c0.2-0.2,0.3-0.5,0.2-0.8l-1.3-6.6c0,0,0,0,0-0.1c8.5-3.1,16.7-9.9,17.2-24.9c0-0.3-0.1-0.5-0.3-0.7c-0.2-0.2-0.4-0.3-0.7-0.3H69.5c1.8-2,9.8-10.9,9.1-16.9c-0.2-2-1-3.8-2.3-5.2c0,0,0,0,0,0L81.3,22.9z M26.7,47.9c-0.4-1.3,0.1-2.9,1.4-4.5c0.8-1,1.9-2.1,3-2c1.1,0.1,2,1.4,2.2,1.9c0.2,0.4,0.7,0.7,1.2,0.5c0.5-0.1,0.8-0.6,0.7-1c-0.1-1.2,0-4.6,1.6-6.1c0.7-0.7,1.7-0.9,3.1-0.7c3.1,0.5,4.3,1.8,4.9,3c0.1,1.2,0.3,2.1,0.4,2.2c0.1,0.5,0.6,0.8,1,0.7c0.5,0,0.9-0.4,0.9-0.9c0,0,0.1-1.1-0.4-2.4c-0.1-1.5,0-3.4,1-4.7c0.8-1,2.2-1.4,4.1-1.3c1.8,0.1,3.1,0.9,4,2.2c2.9,4.8-1.1,15.4-1.7,16.9h-4.9l1.2-7.4c0.1-0.5-0.3-1.1-0.8-1.2c-0.5-0.1-1.1,0.3-1.2,0.8l-1.3,7.7h-6.3l-3.2-5.1c-0.3-0.5-0.9-0.6-1.4-0.3c-0.5,0.3-0.6,0.9-0.3,1.4l2.5,4.1h-7.7C30.1,51.4,27.3,50.1,26.7,47.9zM63,83.5H37.4l1.1-5.3c2.9,0.9,6.1,1.4,9.7,1.7c0,0,0.9,0.1,2.1,0.1c0.6,0,1.3,0,1.9-0.1c2.9-0.2,6.3-0.6,9.7-1.7L63,83.5zM52.1,77.9c-1.9,0.1-3.8,0-3.8,0c-16.9-1.4-26-9.6-26.9-24.3h9.2c0,0,0,0,0,0c0,0,0,0,0,0H79C77.8,72.4,63.8,77.2,52.1,77.9z M70.3,47.7c-1.3-1.3-3.7-2.7-5.3-3.5c-0.5-0.3-1.1-0.1-1.3,0.4c-0.3,0.5-0.1,1.1,0.4,1.3c2.3,1.2,4.5,2.7,5,3.3c-0.5,0.6-0.9,1-1.3,1.4c-0.3,0.3-0.3,0.7-0.2,1H56.2c0.7-2,2.3-6.6,2.5-11.1c0-0.1,0.1-0.1,0.1-0.2c0,0,1.4-2.5,3.2-5.2c4-0.2,7.4,4,7.4,4c0.2,0.2,0.5,0.4,0.8,0.4c0.2,0,0.4-0.1,0.6-0.2c0.4-0.3,0.5-1,0.1-1.4c-0.2-0.2-3.4-4.1-7.6-4.7c1.1-1.5,2.3-3,3.4-3.9c1.2-1.1,3.1-1.4,5-0.6c2,0.8,4.5,2.9,4.8,6.2C77.1,38.5,73.3,44.1,70.3,47.7z"></path>
</svg>
